<?xml version="1.0" encoding="iso-8859-1"?>
<!-- Uploaded to: SVG Repo, www.svgrepo.com, Generator: SVG Repo Mixer Tools -->
<svg version="1.1" id="Layer_1" xmlns="http://www.w3.org/2000/svg" xmlns:xlink="http://www.w3.org/1999/xlink" 
	 viewBox="0 0 508.4 508.4" xml:space="preserve">
<circle style="fill:#84DBFF;" cx="254.2" cy="254" r="254"/>
<path style="fill:#FFD05B;" d="M307.4,497.6V311.2c-3.6-2.4-6.8-6-8.4-10c-1.2-2.4-2-5.2-2.4-8.4l-4-53.6h-76.8l-2.8,40.4l0,0
	l-0.8,13.2c-0.4,8-5.2,14.8-11.6,18.8v185.6h106.8V497.6z"/>
<path style="fill:#F9B54C;" d="M299,301.2L299,301.2c-64.4,50.8-85.6-19.2-86-21.6l0,0l2.8-40.4H293l4,53.6
	C297,296,297.4,298.8,299,301.2z"/>
<rect x="196.2" y="338" style="fill:#E6E9EE;" width="116" height="159.6"/>
<g>
	<polygon style="fill:#FF7058;" points="265,355.2 270.6,337.2 237.8,337.2 243.4,355.2 	"/>
	<polygon style="fill:#FF7058;" points="243.4,355.2 217,495.2 291.4,495.2 265,355.2 	"/>
</g>
<path style="fill:#324A5E;" d="M256.6,508c-0.8,0-1.6,0-2.4,0c-0.8,0-1.6,0-2.4,0c-0.8,0-1.6,0-2.4,0c-70.4-1.2-134-31.6-179.2-79.2
	c0-58,28-73.6,44-78c12.8-3.6,25.2-8.8,37.2-14.8c33.2-16.8,52.8-28.8,54-30.4l-10.8,23.2l21.2,90.4l38,82.8L256.6,508z"/>
<path style="fill:#2B3B4E;" d="M259.4,508c-0.4,0-1.2,0-1.6,0H257c-0.8,0-1.6,0-2.4,0c-0.8,0-1.6,0-2.4,0c-0.4,0-0.4,0-0.8,0
	c-17.6-24.4-44.8-57.6-71.6-72l14.4-33.2h-39.6c13.2-59.2,54-99.2,56-101.2c-1.2,2.4-17.2,34,6.8,86
	C216.6,387.6,241.4,459.2,259.4,508z"/>
<path style="fill:#324A5E;" d="M438.2,428.8c-46.4,48.8-111.6,79.2-184,79.2c-0.8,0-1.6,0-2.4,0l2.4-5.6l38-82.8l21.2-90.4L303,306
	c1.6,1.6,20.8,13.6,54,30.4c12.4,6.4,25.6,11.2,39.2,14.8C412.6,355.6,438.2,372,438.2,428.8z"/>
<path style="fill:#2B3B4E;" d="M315,402.8l14.4,33.2c-27.2,14.4-54.4,47.6-71.6,72.4c-1.2,0-2.4,0-3.6,0c-0.8,0-1.6,0-2.4,0
	c-0.8,0-1.6,0-2.4,0c18-48.8,42.8-120,42.8-120c24-52,8-84,6.8-86c2,2,43.2,42,56,101.2h-40V402.8z"/>
<g>
	<path style="fill:#FFFFFF;" d="M299,301.6c0,0-3.2,18-44.8,36.4c0,0,30.8,19.2,36.4,34.8C290.6,372.8,319,334,299,301.6z"/>
	<path style="fill:#FFFFFF;" d="M209.8,301.6c0,0,3.2,18,44.8,36.4c0,0-30.8,19.2-36.4,34.8C217.8,372.8,189.4,334,209.8,301.6z"/>
</g>
<g>
	<path style="fill:#324A5E;" d="M254.2,250.4c-14-7.2-19.6,14.4-42,2c0,0,8.8,24.4,42,9.6c33.2,14.4,42-9.6,42-9.6
		C273.8,264.8,268.2,243.2,254.2,250.4z"/>
	<ellipse style="fill:#324A5E;" cx="254.2" cy="174.4" rx="85.2" ry="84"/>
</g>
<g>
	<path style="fill:#FFD05B;" d="M327.8,188.8c0,50.4-33.2,114-73.6,114c-40.8,0-73.6-63.6-73.6-114s32.8-68.8,73.6-68.8
		S327.8,138.4,327.8,188.8z"/>
	<path style="fill:#FFD05B;" d="M340.6,219.6c-5.2,12-14.8,18.8-20.8,15.2c-6.4-3.6-7.2-15.6-2-27.6s14.4-18.8,20.8-15.2
		C345,195.2,346.2,207.6,340.6,219.6z"/>
	<path style="fill:#FFD05B;" d="M167.8,219.6c5.2,12,14.8,18.8,20.8,15.2c6.4-3.6,7.2-15.6,2-27.6s-14.4-18.8-20.8-15.2
		C163.4,195.2,162.2,207.6,167.8,219.6z"/>
</g>
<path style="fill:#FFFFFF;" d="M373.4,265.2c0-10.4-6-19.2-15.2-23.2c6.4-3.6,10.8-10.4,10.8-18.4c0-8.4-4.8-15.6-12-19.2
	c6.8-2.4,12-9.2,12-16.8c0-5.2-2-9.6-5.6-13.2c1.2-2.4,2-5.2,2-8c0-6.4-3.6-12-8.4-15.2c1.6-2.8,2.8-6,2.8-9.6
	c0-8.8-6.4-16.4-15.2-17.6c0-0.8,0.4-2,0.4-2.8c0-9.2-6.8-16.4-15.2-17.6c0,0,0,0,0-0.4c0-10-8-18-18-18c-2.8,0-5.6,0.8-8,2
	c-3.2-4.8-8.8-7.6-14.8-7.6c-2.4,0-4.4,0.4-6.4,1.2c-2.8-6-9.2-10.4-16.4-10.4c-4.4,0-8.4,1.6-11.6,4.4c-3.2-2.8-7.2-4.4-11.6-4.4
	c-7.2,0-13.2,4-16.4,10.4c-2-0.8-4.4-1.2-6.4-1.2c-6,0-11.6,3.2-14.8,7.6c-2.4-1.2-5.2-2-8-2c-10,0-18,8-18,18c0,0,0,0,0,0.4
	c-8.8,1.2-15.2,8.8-15.2,17.6c0,0.8,0,2,0.4,2.8c-8.4,1.2-15.2,8.8-15.2,17.6c0,3.6,1.2,6.8,2.8,9.6c-5.2,3.2-8.4,8.8-8.4,15.2
	c0,2.8,0.8,5.6,2,8c-3.6,3.2-5.6,8-5.6,13.2c0,8,5.2,14.4,12,16.8c-7.2,3.6-12,10.8-12,19.2c0,8,4.4,14.8,10.8,18.4
	c-8.8,4-15.2,12.8-15.2,23.2c0,3.2,0.8,6.4,2,9.6c-1.2,2.8-2,6-2,9.6c0,14,11.2,25.6,25.6,25.6c4.4,0,8.4-1.2,12-3.2
	c3.6,3.2,8.4,4.8,13.2,4.8c11.2,0,20.8-9.2,20.8-20.8c0-6-2.8-11.6-6.8-15.6c0-0.4,0-0.8,0-1.2c0-6.4-2.8-12-7.2-15.6
	c0.8-2,1.2-4.4,1.2-6.8c0-5.6-2.4-10.8-6-14.4c3.6-3.6,6-8.8,6-14.4c0-6.8-3.2-12.8-8-16.4c4.8-3.6,8-9.6,8-16.4c0-0.4,0-0.8,0-1.2
	c2-2.8,3.6-6.8,3.6-10.4c0-3.6-1.2-7.2-2.8-10c6.8-3.2,11.2-10.4,11.2-18.4c0-1.6-0.4-3.2-0.4-4.8c8.4-0.4,15.2-6.8,16.8-14.8
	c0.8,0,2,0.4,2.8,0.4c4.4,0,8.4-1.6,11.6-4.4c1.6,0.4,3.6,0.8,5.2,0.8c4.8,0,9.6-2,12.8-5.2c3.2,3.2,7.6,5.2,12.8,5.2
	c2,0,3.6-0.4,5.2-0.8c3.2,2.8,7.2,4.4,11.6,4.4c0.8,0,2,0,2.8-0.4c1.6,8,8.4,14.4,16.8,14.8c-0.4,1.6-0.4,3.2-0.4,4.8
	c0,8,4.8,15.2,11.2,18.4c-2,2.8-2.8,6.4-2.8,10c0,4,1.2,7.6,3.6,10.4c0,0.4,0,0.8,0,1.2c0,6.8,3.2,12.8,8,16.4
	c-4.8,3.6-8,9.6-8,16.4c0,5.6,2.4,10.8,6,14.4c-3.6,3.6-6,8.8-6,14.4c0,2.4,0.4,4.8,1.2,6.8c-4.4,3.6-7.2,9.2-7.2,15.6
	c0,0.4,0,0.8,0,1.2c-4.4,3.6-6.8,9.2-6.8,15.6c0,11.2,9.2,20.8,20.8,20.8c5.2,0,9.6-2,13.2-4.8c3.6,2,7.6,3.2,12,3.2
	c14,0,25.6-11.2,25.6-25.6c0-3.2-0.8-6.4-2-9.6C372.6,272,373.4,268.8,373.4,265.2z"/>
</svg>