<?xml version="1.0" encoding="utf-8"?>
<!-- Uploaded to: SVG Repo, www.svgrepo.com, Generator: SVG Repo Mixer Tools -->
<svg width="800px" height="800px" viewBox="0 0 1024 1024" class="icon"  version="1.1" xmlns="http://www.w3.org/2000/svg"><path d="M654.4 418.1c0 33.2-26.9 60.2-60.2 60.2-16.5 0-31.7-6.8-42.5-17.6-12.8 13.1-27.1 24.6-42.7 34 15.9 6.6 31.1 14.5 45.5 23.5-61.2 52.6-99.9 130.5-99.9 217.5 0 15.1 1.2 30 3.4 44.4H159.6c0.6-132.8 44.5-243.3 162-286.9-14.2-9.5-19 5.3-30.8-7.1-11 12.8 4.6-7.7-13.7-7.7-33.2 0-60.2-26.9-60.2-60.2 0-30.2 22.4-55.3 51.5-59.5-0.9-3.8-11.9-7.7-12.7-11.7-18.1-10.4-20.4-29.9-20.4-52.3 0-23.2 13.2-43.5 32.6-53.4 24.6-97.5 130.8-149.5 232-149.5 42 49.2 87.2 53.4 110.8 152.4 19.4 9.9 32.8 30.2 32.8 53.6 0 23.3-13.1 43.3-32.3 53.4-0.8 2.8-1.4 5.8-2.2 8.7 26.1 6.6 45.4 30 45.4 58.2z" fill="#CCCCCC" /><path d="M525.9 524.2c8.3 5.8 19.8 3.7 25.5-4.7 5.8-8.3 3.7-19.8-4.7-25.5l-0.5-0.4c-2.1-1.5-4.1-2.8-7.3-4.5 2.1-1.7 4.1-3.4 6.1-5.2 12 7.4 25.8 11.3 40.2 11.3 42.4 0 76.9-34.5 76.9-76.9 0-25.7-12.7-49-32.8-63.1 14-14.2 22.2-33.4 22.2-54 0-26.1-13-49.9-34.4-64.1-13-47.9-40.7-91.1-78.4-122.3-20-16.5-42.2-29.3-66.2-38.2-24.8-9.2-50.8-13.8-77.4-13.8-102.5 0-192.3 70-221.2 171.3-21.3 14.2-34.3 38-34.3 64 0 20 7.9 39.1 21.4 53.2-7.6 4.3-14.4 9.8-20.2 16.5-12.2 14-18.9 31.9-18.9 50.5 0 42.4 34.5 76.9 76.9 76.9 15.8 0 31-4.9 43.8-13.7 0.9 0.8 1.8 1.7 2.8 2.5-47.9 23.4-89 58.4-120.3 102.4-38.4 54-58.8 117.7-59.1 184.1l-0.1 18.5h371.8c10.1 0 18.4-8.2 18.4-18.4 0-10.1-8.2-18.4-18.4-18.4H103.4c7.7-110.1 80-207.7 184.3-246.5l33.9-12.6-30.1-20c-12.6-8.4-24.3-18.3-34.8-29.4l-14-14.9-13.3 15.5c-7.7 8.9-18.8 14-30.5 14-22.2 0-40.2-18-40.2-40.2 0-19.8 14.8-36.9 34.3-39.8l20.3-3-5.2-19.9c-0.9-3.5-1.7-7-2.5-10.5l-1.7-8.1-7.2-4.1c-12.6-7.1-20.4-20.5-20.4-34.9 0-15.1 8.3-28.8 21.8-35.7l7.4-3.8 2-8c22.3-88.9 99.4-151 187.5-151 89.4 0 166.8 63.2 188.2 153.7l2 8.3 7.5 3.9c13.5 6.9 21.9 20.6 21.9 35.8 0 15-8.3 28.7-21.6 35.6l-7.5 3.9-1.9 8.3c-0.6 2.8-1.3 5.3-1.9 7.8l-4.8 18 18.1 4.6c17.8 4.5 30.3 20.5 30.3 39 0 22.2-18 40.2-40.2 40.2-10.7 0-20.8-4.2-28.4-11.8l-13.1-13.1-13 13.3c-11.4 11.7-24.2 21.8-38 30.2L462 495.9l33.3 13.8c24.4 10.2 27.3 12.1 30 14l0.6 0.5z" fill="#666666" /><path d="M431.2 504.8c-1.6-3.6-5.8-5.2-9.4-3.6L394 512.1c-2.1 0.9-3.5 2.7-4 4.8-0.5-2.1-1.9-3.9-4-4.8l-27.8-10.9c-3.6-1.6-7.8 0-9.4 3.6l-57.4 129.7c-1.6 3.6 0 7.8 3.6 9.4l27.8 10.9c3.6 1.6 7.8 0 9.4-3.6l57.4-129.7c0.2-0.4 0.3-0.8 0.4-1.2 0.1 0.4 0.2 0.8 0.4 1.2l57.4 129.7c1.6 3.6 5.8 5.2 9.4 3.6l27.8-10.9c3.6-1.6 5.2-5.8 3.6-9.4l-57.4-129.7zM737.9 510.7c-124.3 0-225 100.7-225 225s100.7 225 225 225 225-100.7 225-225-100.8-225-225-225zM878 648.6L755.7 880.9c-3.3 6.3-9.7 10.1-16.7 10.1h-0.6c-7.2 0.2-13.8-3.7-17.2-10.1L598.9 648.6c-4.9-9.2-1.3-20.7 7.9-25.7 4.4-2.4 9.6-2.8 14.5-1.3s8.9 4.8 11.2 9.2l105.9 201.3 105.9-201.2c2.4-4.5 6.4-7.8 11.2-9.3 4.9-1.5 10-1 14.5 1.4 9.2 4.9 12.8 16.4 8 25.6z" fill="#666666" /></svg>